<?xml version="1.0" encoding="UTF-8"?>
<svg id="_Слой_2" data-name="Слой 2" xmlns="http://www.w3.org/2000/svg" viewBox="0 0 90.98 100.07">
  <defs>
    <style>
      .cls-1 {
        fill: #fff;
      }
    </style>
  </defs>
  <g id="_Слой_1-2" data-name="Слой 1">
    <g>
      <path class="cls-1" d="M59.56,68.89c-1.86-.18-4.38-.23-6.66.14v.51c0,.47.09.7.61.7.84,0,1.49.14,1.49,1.58v8.48c0,1.45-.61,1.49-1.54,1.54-.47.05-.56.33-.56.7v.56c.98.28,5.22.18,6.61.09.47,0,.56-.32.56-.65v-.61c-1.26,0-2.05-.09-2.05-1.63h0v-8.48h0c0-1.54.79-1.63,2.05-1.63v-.61c0-.33-.09-.61-.51-.7"/>
      <path class="cls-1" d="M30.73,81.9c-.47.05-.56.33-.56.7v.56c.75.18,3.03.23,3.59.23.93,0,1.86,0,3.08-.14.42-.09.51-.37.51-.7v-.61c-1.21,0-2.01-.05-2.1-1.63l-.56-8.9c-.09-.93.52-1.17,1.26-1.17.52,0,.61-.23.61-.7v-.47c-.7-.28-2.19-.37-2.8-.37-1.31,0-2.33.42-3.21,2.05l-3.63,6.66-3.73-6.85c-.7-1.21-1.45-1.86-2.98-1.86-1.82,0-2.65.14-3.08.23v.56c0,.37.09.61.51.7.79.05,1.49.18,1.4,1.17h-.01l-.79,8.9h0c-.14,1.54-.65,1.58-1.58,1.63-.47.05-.56.33-.56.7v.51c.7.23,2.28.28,2.89.28.88,0,1.3,0,2.47-.14.42-.09.56-.37.56-.7v-.61c-1.21,0-2.19-.05-2.1-1.21l.7-8.57,5.12,9.37h.93l5.03-9.37.61,8.53c.09,1.07-.79,1.17-1.58,1.21"/>
      <path class="cls-1" d="M74.13,79.1c-.61.7-2,1.86-3.82,1.86-2.24,0-4.66-1.35-4.66-5.4,0-3.12,1.49-5.31,3.78-5.31,1.35,0,2.1.93,2.1,2.1,0,.38-.05.79-.19,1.26.05.05.61.23,1.17.23.88,0,2.1-.61,2.1-2.24,0-2.19-2.56-3.12-4.38-3.12h0c-4.84,0-7.73,3.68-7.73,8.43h0c0,3.78,2.33,6.71,6.52,6.71,3.08,0,4.94-1.72,5.73-3.31.23-.37.18-.56-.09-.79l-.51-.42Z"/>
      <path class="cls-1" d="M40.27,81.8c-.42,0-.56.18-.56.7v.51c.65.14,2.1.42,6.34.37,3.64-.05,6.57-1.96,6.57-5.4,0-2.51-2.01-4.19-4.75-4.19-1.35,0-2.38.37-3.12.75v-2.7c0-1.54.75-1.63,2.1-1.63v-.61c0-.33-.14-.61-.56-.7-1.21-.14-2.14-.14-3.03-.14-.61,0-2.89.05-3.58.33v.47h-.01s0,0,0,0c0,.47.09.7.61.7.84,0,1.49.14,1.49,1.58v8.34c0,1.45-.65,1.63-1.49,1.63M44.75,75.93h0c.37-.18.84-.37,1.63-.37,1.95,0,3.12,1.26,3.12,3.03,0,2.19-1.49,3.26-2.89,3.26-1.07,0-1.86-.7-1.86-1.86v-4.05Z"/>
      <path class="cls-1" d="M34.61,60.54c-.7,0-.93-.61-.98-1.26-1.12.18-1.86.93-1.86,2s.79,2.33,2.51,2.33c4.75,0,4.94-8.62,5.08-13.13l1.77-.05,2.05.05v9.92c0,1.38-.6,1.44-1.52,1.53h-.02c-.33,0-.56.14-.56.7v.51c.7.28,2.98.33,3.58.33,1.02,0,2-.05,3.17-.18.42-.09.51-.37.51-.65v-.61c-1.26,0-2.05-.09-2.05-1.63v-8.48c0-1.54.79-1.63,2.05-1.63v-.75c0-.33-.09-.65-.56-.65-1.45-.05-3.63-.09-6.52-.09-2.19,0-4.47.05-5.96.09-.42.09-.56.37-.56.65h0s0,.74,0,.74h0c1.63-.05,2.75.74,2.75,3.12s-.65,7.13-2.89,7.13"/>
      <path class="cls-1" d="M69.4,51.92c0-1.54.79-1.63,2.05-1.63v-.61c0-.33-.09-.61-.51-.7-1.86-.18-4.38-.23-6.66.14v.52c0,.47.09.7.61.7.84,0,1.49.14,1.49,1.58v8.48c0,1.45-.61,1.49-1.54,1.54-.47.05-.56.33-.56.7v.56c.98.28,5.21.18,6.61.09.47,0,.56-.32.56-.65v-.61c-1.26,0-2.05-.09-2.05-1.63h0v-8.48Z"/>
      <path class="cls-1" d="M90.38,50.25c.51,0,.61-.23.61-.7v-.52c-1.72-.18-3.64-.7-5.45,1.68l-6.29,8.34v-7.13h-.01c0-1.54.84-1.63,2.1-1.63h0s0-.6,0-.6c0-.33-.14-.61-.56-.7-1.58-.18-4.14-.23-6.61.14v.51c0,.47.09.7.61.7.84,0,1.49.14,1.49,1.58v8.57c0,1.45-.61,1.49-1.54,1.54-.47.05-.56.33-.56.7v.56c2.51.28,3.96.32,5.45-1.72l6.24-8.39v7.22c0,1.54-.79,1.63-2.05,1.63v.61c0,.28.09.56.51.65,1.96.23,4.71.32,6.66-.09v-.56c0-.37-.09-.65-.56-.7h-.03c-.92-.09-1.55-.16-1.55-1.54v-8.57c0-1.45.7-1.54,1.54-1.58"/>
      <path class="cls-1" d="M57.44,63.47c3.63-.05,6.57-1.96,6.57-5.41,0-2.51-2-4.19-4.75-4.19-1.35,0-2.38.37-3.12.75v-2.7c0-1.54.75-1.63,2.1-1.63v-.61c0-.32-.14-.61-.56-.7-1.21-.14-2.15-.14-3.03-.14-.61,0-2.89.05-3.58.33v.47h-.01s0,0,0,0c0,.47.09.7.61.7.84,0,1.49.14,1.49,1.58v8.34c0,1.45-.65,1.63-1.49,1.63-.42,0-.56.18-.56.7v.51c.65.14,2.1.42,6.34.37M56.13,60.07v-4.05h0c.37-.18.84-.37,1.63-.37,1.96,0,3.12,1.26,3.12,3.03,0,2.19-1.49,3.26-2.89,3.26-1.07,0-1.86-.7-1.86-1.86"/>
      <path class="cls-1" d="M9.13,50.89c-1.49,0-2.94.33-3.82.7v-6.57c.7-.09,1.72-.18,2.94-.18,2.05,0,3.87.75,4.19,3.73.09.42.28.51.7.51h.65c.23-1.49.23-4.19.14-5.77-3.35-.23-8.06-.28-13.88.09v.56c0,.51.14.7.56.7.88,0,1.49.14,1.49,1.58v14.16c0,1.45-.65,1.54-1.54,1.58-.47.05-.56.33-.56.7v.56h0c.28.1,4.05.23,7.45.23,3.87,0,8.29-2.19,8.29-6.75,0-4.19-3.17-5.82-6.61-5.82M8.25,62.02c-2.1,0-2.94-1.21-2.94-2.28h0v-6.66h0c.79-.18,1.68-.28,2.61-.28,1.86,0,4.47,1.17,4.47,4.94,0,3.17-2.51,4.28-4.14,4.28"/>
      <path class="cls-1" d="M30.56,55.18c.14-.61.19-1.45.19-2,0-3.08-2.33-4.66-5.03-4.66-4.38,0-7.5,3.96-7.5,8.29,0,4.01,2.51,6.89,6.57,6.89s5.64-2.84,5.87-3.26c.23-.37.18-.61-.09-.84l-.51-.42c-.61.7-2.1,1.86-3.96,1.86-3.31,0-4.75-2.28-4.75-5.21h0s0,0,0,0v-.65h9.23ZM24.97,50.24c1.81,0,2.65,1.4,2.65,2.51,0,.22-.02.39-.03.53-.01.1-.02.18-.02.26h-6.05c.47-2.23,1.63-3.31,3.44-3.31"/>
      <path class="cls-1" d="M44.83,37.58c21.1,0,38.5-15.82,41.01-36.24-1.03-.52-1.85-.89-3-1.34-1.82,17.36-16.77,30.78-34.61,30.78-16.56,0-30.57-11.58-33.93-27.14-3.41,1.46-6.32,2.99-9.01,4.71,5.18,16.92,20.92,29.23,39.53,29.23"/>
      <path class="cls-1" d="M32.37,95.2l.97,4.88c7.7-1.59,18.59-2.57,25.76-2.57l.34-2.59c-9.41-.66-17.91-.57-27.08.28"/>
      <path class="cls-1" d="M82.92,44.43c-1.91,0-3.59-1.36-4-3.22l-.11-.49-.47.2c-.47.2-.89.42-1.26.66l-.27.17.09.3c.75,2.46,2.98,4.11,5.56,4.11,2.93,0,5.41-2.19,5.77-5.1l.04-.29-.26-.13c-.14-.07-.3-.14-.46-.21l-.51-.2-.06.54c-.22,2.08-1.97,3.66-4.06,3.66"/>
    </g>
  </g>
</svg>